{
    "accessors" : [
        {
            "bufferView" : 0,
            "componentType" : 5126,
            "count" : 801,
            "max" : [
                200.4889678955078,
                126.13662719726562,
                200.52072143554688
            ],
            "min" : [
                -201.74560546875,
                94.80722045898438,
                -201.89303588867188
            ],
            "type" : "VEC3"
        },
        {
            "bufferView" : 1,
            "componentType" : 5126,
            "count" : 801,
            "type" : "VEC3"
        },
        {
            "bufferView" : 2,
            "componentType" : 5126,
            "count" : 801,
            "type" : "VEC2"
        },
        {
            "bufferView" : 3,
            "componentType" : 5123,
            "count" : 4512,
            "type" : "SCALAR"
        },
        {
            "bufferView" : 4,
            "componentType" : 5126,
            "count" : 473,
            "max" : [
                199.17100524902344,
                119.27200317382812,
                199.2010040283203
            ],
            "min" : [
                -200.4250030517578,
                19.2716007232666,
                -200.572998046875
            ],
            "type" : "VEC3"
        },
        {
            "bufferView" : 5,
            "componentType" : 5126,
            "count" : 473,
            "type" : "VEC3"
        },
        {
            "bufferView" : 6,
            "componentType" : 5126,
            "count" : 473,
            "type" : "VEC2"
        },
        {
            "bufferView" : 7,
            "componentType" : 5123,
            "count" : 2532,
            "type" : "SCALAR"
        },
        {
            "bufferView" : 8,
            "componentType" : 5126,
            "count" : 4,
            "max" : [
                12.413793103448276
            ],
            "min" : [
                0
            ],
            "type" : "SCALAR"
        },
        {
            "bufferView" : 9,
            "componentType" : 5126,
            "count" : 4,
            "type" : "VEC3"
        },
        {
            "bufferView" : 10,
            "componentType" : 5126,
            "count" : 4,
            "max" : [
                12.413793103448276
            ],
            "min" : [
                0
            ],
            "type" : "SCALAR"
        },
        {
            "bufferView" : 11,
            "componentType" : 5126,
            "count" : 4,
            "type" : "VEC4"
        },
        {
            "bufferView" : 12,
            "componentType" : 5126,
            "count" : 4,
            "max" : [
                12.413793103448276
            ],
            "min" : [
                0
            ],
            "type" : "SCALAR"
        },
        {
            "bufferView" : 13,
            "componentType" : 5126,
            "count" : 4,
            "type" : "VEC3"
        },
        {
            "bufferView" : 14,
            "componentType" : 5126,
            "count" : 4,
            "max" : [
                12.413793103448276
            ],
            "min" : [
                0
            ],
            "type" : "SCALAR"
        },
        {
            "bufferView" : 15,
            "componentType" : 5126,
            "count" : 4,
            "type" : "VEC3"
        },
        {
            "bufferView" : 16,
            "componentType" : 5126,
            "count" : 4,
            "max" : [
                12.413793103448276
            ],
            "min" : [
                0
            ],
            "type" : "SCALAR"
        },
        {
            "bufferView" : 17,
            "componentType" : 5126,
            "count" : 4,
            "type" : "VEC4"
        },
        {
            "bufferView" : 18,
            "componentType" : 5126,
            "count" : 4,
            "max" : [
                12.413793103448276
            ],
            "min" : [
                0
            ],
            "type" : "SCALAR"
        },
        {
            "bufferView" : 19,
            "componentType" : 5126,
            "count" : 4,
            "type" : "VEC3"
        }
    ],
    "animations" : [
        {
            "channels" : [
                {
                    "sampler" : 0,
                    "target" : {
                        "node" : 7,
                        "path" : "translation"
                    }
                },
                {
                    "sampler" : 1,
                    "target" : {
                        "node" : 7,
                        "path" : "rotation"
                    }
                },
                {
                    "sampler" : 2,
                    "target" : {
                        "node" : 7,
                        "path" : "scale"
                    }
                }
            ],
            "name" : "CameraPreset.001Action",
            "samplers" : [
                {
                    "input" : 8,
                    "interpolation" : "LINEAR",
                    "output" : 9
                },
                {
                    "input" : 10,
                    "interpolation" : "LINEAR",
                    "output" : 11
                },
                {
                    "input" : 12,
                    "interpolation" : "LINEAR",
                    "output" : 13
                }
            ]
        },
        {
            "channels" : [
                {
                    "sampler" : 0,
                    "target" : {
                        "node" : 10,
                        "path" : "translation"
                    }
                },
                {
                    "sampler" : 1,
                    "target" : {
                        "node" : 10,
                        "path" : "rotation"
                    }
                },
                {
                    "sampler" : 2,
                    "target" : {
                        "node" : 10,
                        "path" : "scale"
                    }
                }
            ],
            "name" : "CameraPresetAction",
            "samplers" : [
                {
                    "input" : 14,
                    "interpolation" : "LINEAR",
                    "output" : 15
                },
                {
                    "input" : 16,
                    "interpolation" : "LINEAR",
                    "output" : 17
                },
                {
                    "input" : 18,
                    "interpolation" : "LINEAR",
                    "output" : 19
                }
            ]
        }
    ],
    "asset" : {
        "generator" : "Khronos Blender glTF 2.0 I/O",
        "version" : "2.0"
    },
    "bufferViews" : [
        {
            "buffer" : 0,
            "byteLength" : 9612,
            "byteOffset" : 0
        },
        {
            "buffer" : 0,
            "byteLength" : 9612,
            "byteOffset" : 9612
        },
        {
            "buffer" : 0,
            "byteLength" : 6408,
            "byteOffset" : 19224
        },
        {
            "buffer" : 0,
            "byteLength" : 9024,
            "byteOffset" : 25632
        },
        {
            "buffer" : 0,
            "byteLength" : 5676,
            "byteOffset" : 34656
        },
        {
            "buffer" : 0,
            "byteLength" : 5676,
            "byteOffset" : 40332
        },
        {
            "buffer" : 0,
            "byteLength" : 3784,
            "byteOffset" : 46008
        },
        {
            "buffer" : 0,
            "byteLength" : 5064,
            "byteOffset" : 49792
        },
        {
            "buffer" : 0,
            "byteLength" : 16,
            "byteOffset" : 54856
        },
        {
            "buffer" : 0,
            "byteLength" : 48,
            "byteOffset" : 54872
        },
        {
            "buffer" : 0,
            "byteLength" : 16,
            "byteOffset" : 54920
        },
        {
            "buffer" : 0,
            "byteLength" : 64,
            "byteOffset" : 54936
        },
        {
            "buffer" : 0,
            "byteLength" : 16,
            "byteOffset" : 55000
        },
        {
            "buffer" : 0,
            "byteLength" : 48,
            "byteOffset" : 55016
        },
        {
            "buffer" : 0,
            "byteLength" : 16,
            "byteOffset" : 55064
        },
        {
            "buffer" : 0,
            "byteLength" : 48,
            "byteOffset" : 55080
        },
        {
            "buffer" : 0,
            "byteLength" : 16,
            "byteOffset" : 55128
        },
        {
            "buffer" : 0,
            "byteLength" : 64,
            "byteOffset" : 55144
        },
        {
            "buffer" : 0,
            "byteLength" : 16,
            "byteOffset" : 55208
        },
        {
            "buffer" : 0,
            "byteLength" : 48,
            "byteOffset" : 55224
        }
    ],
    "buffers" : [
        {
            "byteLength" : 55272,
            "uri" : "data:application/octet-stream;base64,"
        }
    ],
    "extensions" : {},
    "materials" : [
        {
            "name" : "Gold_scharik",
            "pbrMetallicRoughness" : {}
        },
        {
            "name" : "Material",
            "pbrMetallicRoughness" : {}
        }
    ],
    "meshes" : [
        {
            "name" : "ChamferCyl_1.002",
            "primitives" : [
                {
                    "attributes" : {
                        "NORMAL" : 1,
                        "POSITION" : 0,
                        "TEXCOORD_0" : 2
                    },
                    "indices" : 3,
                    "material" : 0
                }
            ]
        },
        {
            "name" : "ChamferCyl_1.002",
            "primitives" : [
                {
                    "attributes" : {
                        "NORMAL" : 5,
                        "POSITION" : 4,
                        "TEXCOORD_0" : 6
                    },
                    "indices" : 7,
                    "material" : 1
                }
            ]
        }
    ],
    "nodes" : [
        {
            "mesh" : 0,
            "name" : "ChamferCyl_1.001",
            "translation" : [
                0,
                40.563201904296875,
                0
            ]
        },
        {
            "name" : "BackLight.001",
            "rotation" : [
                -0.09426166117191315,
                -0.5286204218864441,
                0.5286204218864441,
                0.6574462652206421
            ],
            "translation" : [
                -3163.76171875,
                2249.463623046875,
                -3628.167236328125
            ]
        },
        {
            "name" : "FillLight.001",
            "rotation" : [
                0.18451330065727234,
                0.38790223002433777,
                -0.38790223002433777,
                0.81548672914505
            ],
            "translation" : [
                7920.28759765625,
                6441.68896484375,
                0
            ]
        },
        {
            "name" : "KeyLight.001",
            "rotation" : [
                0.34885698556900024,
                -0.2135152369737625,
                0.2135152667760849,
                0.8871986865997314
            ],
            "translation" : [
                -2804.6318359375,
                3535.697021484375,
                2804.6318359375
            ]
        },
        {
            "children" : [
                1,
                2,
                3
            ],
            "name" : "LightPreset.001",
            "translation" : [
                -0.31500244140625,
                143.95913696289062,
                -0.7855072021484375
            ]
        },
        {
            "mesh" : 1,
            "name" : "ChamferCyl_1",
            "scale" : [
                1,
                1.362754225730896,
                1
            ]
        },
        {
            "name" : "TurnTableCamera.001",
            "rotation" : [
                0.4829629361629486,
                -0.2241438925266266,
                0.1294095367193222,
                0.8365164399147034
            ],
            "translation" : [
                -419.04937744140625,
                483.8765563964844,
                725.8148193359375
            ]
        },
        {
            "children" : [
                6
            ],
            "name" : "CameraPreset.001",
            "translation" : [
                -0.31500244140625,
                143.95913696289062,
                -0.7855072021484375
            ]
        },
        {
            "name" : "Group"
        },
        {
            "name" : "TurnTableCamera",
            "rotation" : [
                0.4829629361629486,
                -0.2241438925266266,
                0.1294095367193222,
                0.8365164399147034
            ],
            "translation" : [
                -419.04937744140625,
                483.8765563964844,
                725.8148193359375
            ]
        },
        {
            "children" : [
                9
            ],
            "name" : "CameraPreset",
            "translation" : [
                -0.31500244140625,
                143.95913696289062,
                -0.7855072021484375
            ]
        },
        {
            "name" : "BackLight",
            "rotation" : [
                -0.09426166117191315,
                -0.5286204218864441,
                0.5286204218864441,
                0.6574462652206421
            ],
            "translation" : [
                -3163.76171875,
                2249.463623046875,
                -3628.167236328125
            ]
        },
        {
            "name" : "FillLight",
            "rotation" : [
                0.18451330065727234,
                0.38790223002433777,
                -0.38790223002433777,
                0.81548672914505
            ],
            "translation" : [
                7920.28759765625,
                6441.68896484375,
                0
            ]
        },
        {
            "name" : "KeyLight",
            "rotation" : [
                0.34885698556900024,
                -0.2135152369737625,
                0.2135152667760849,
                0.8871986865997314
            ],
            "translation" : [
                -2804.6318359375,
                3535.697021484375,
                2804.6318359375
            ]
        },
        {
            "children" : [
                11,
                12,
                13
            ],
            "name" : "LightPreset",
            "translation" : [
                -0.31500244140625,
                143.95913696289062,
                -0.7855072021484375
            ]
        }
    ],
    "scene" : 0,
    "scenes" : [
        {
            "name" : "Cake",
            "nodes" : [
                0,
                4,
                5,
                7,
                8,
                10,
                14
            ]
        }
    ]
}
