{
    "accessors" : [
        {
            "bufferView" : 0,
            "componentType" : 5126,
            "count" : 46370,
            "type" : "VEC3"
        },
        {
            "bufferView" : 1,
            "componentType" : 5126,
            "count" : 46370,
            "max" : [
                1.0252292156219482,
                1.1165214776992798,
                1.0252292156219482
            ],
            "min" : [
                -1.0252292156219482,
                0.926100492477417,
                -1.0252296924591064
            ],
            "type" : "VEC3"
        },
        {
            "bufferView" : 2,
            "componentType" : 5123,
            "count" : 278208,
            "type" : "SCALAR"
        },
        {
            "bufferView" : 3,
            "componentType" : 5126,
            "count" : 441,
            "type" : "VEC3"
        },
        {
            "bufferView" : 4,
            "componentType" : 5126,
            "count" : 441,
            "max" : [
                0.9996891617774963,
                1,
                0.9987569451332092
            ],
            "min" : [
                -0.9996891617774963,
                -1,
                -1
            ],
            "type" : "VEC3"
        },
        {
            "bufferView" : 5,
            "componentType" : 5123,
            "count" : 2634,
            "type" : "SCALAR"
        },
        {
            "bufferView" : 6,
            "componentType" : 5126,
            "count" : 2,
            "max" : [
                3.0833333333333335
            ],
            "min" : [
                0
            ],
            "type" : "SCALAR"
        },
        {
            "bufferView" : 7,
            "componentType" : 5126,
            "count" : 6,
            "type" : "SCALAR"
        }
    ],
    "animations" : [
        {
            "channels" : [
                {
                    "sampler" : 0,
                    "target" : {
                        "node" : 0,
                        "path" : "weights"
                    }
                }
            ],
            "name" : "KeyAction",
            "samplers" : [
                {
                    "input" : 6,
                    "interpolation" : "CUBICSPLINE",
                    "output" : 7
                }
            ]
        }
    ],
    "asset" : {
        "generator" : "Khronos Blender glTF 2.0 I/O",
        "version" : "2.0"
    },
    "bufferViews" : [
        {
            "buffer" : 0,
            "byteLength" : 556440,
            "byteOffset" : 0
        },
        {
            "buffer" : 0,
            "byteLength" : 556440,
            "byteOffset" : 556440
        },
        {
            "buffer" : 0,
            "byteLength" : 556416,
            "byteOffset" : 1112880
        },
        {
            "buffer" : 0,
            "byteLength" : 5292,
            "byteOffset" : 1669296
        },
        {
            "buffer" : 0,
            "byteLength" : 5292,
            "byteOffset" : 1674588
        },
        {
            "buffer" : 0,
            "byteLength" : 5268,
            "byteOffset" : 1679880
        },
        {
            "buffer" : 0,
            "byteLength" : 8,
            "byteOffset" : 1685148
        },
        {
            "buffer" : 0,
            "byteLength" : 24,
            "byteOffset" : 1685156
        }
    ],
    "buffers" : [
        {
            "byteLength" : 1685180,
            "uri" : "data:application/octet-stream;base64,"
        }
    ],
    "extensions" : {},
    "materials" : [
        {
            "name" : "Material",
            "pbrMetallicRoughness" : {}
        },
        {
            "name" : "Material.001",
            "pbrMetallicRoughness" : {}
        }
    ],
    "meshes" : [
        {
            "name" : "Cylinder.001",
            "primitives" : [
                {
                    "attributes" : {
                        "NORMAL" : 0,
                        "POSITION" : 1
                    },
                    "indices" : 2,
                    "material" : 0
                }
            ]
        },
        {
            "name" : "Cylinder.001",
            "primitives" : [
                {
                    "attributes" : {
                        "NORMAL" : 3,
                        "POSITION" : 4
                    },
                    "indices" : 5,
                    "material" : 1
                }
            ]
        }
    ],
    "nodes" : [
        {
            "mesh" : 0,
            "name" : "Cylinder.001",
            "scale" : [
                4.355600357055664,
                1.3040192127227783,
                4.355600357055664
            ]
        },
        {
            "mesh" : 1,
            "name" : "Cylinder",
            "scale" : [
                4.355600357055664,
                1.3040192127227783,
                4.355600357055664
            ]
        },
        {
            "name" : "Lamp",
            "rotation" : [
                0.16907575726509094,
                0.7558802962303162,
                -0.27217137813568115,
                0.570947527885437
            ],
            "translation" : [
                11.924182891845703,
                12.762833595275879,
                -0.31620532274246216
            ]
        },
        {
            "name" : "Camera",
            "rotation" : [
                0.483536034822464,
                0.33687159419059753,
                -0.20870360732078552,
                0.7804827094078064
            ],
            "translation" : [
                7.481131553649902,
                5.34366512298584,
                6.5076398849487305
            ]
        }
    ],
    "scene" : 0,
    "scenes" : [
        {
            "name" : "Scene",
            "nodes" : [
                0,
                1,
                2,
                3
            ]
        }
    ]
}
